HIERARCHY
ROOT Hips
{
	OFFSET 0.000000 0.000000 0.000000 
	CHANNELS 6 Xposition Yposition Zposition Zrotation Yrotation Xrotation
	JOINT LeftUpLeg
	{
		OFFSET 1.363060 -1.794630 0.839290 
		CHANNELS 3 Zrotation Yrotation Xrotation
		JOINT LeftLeg
		{
			OFFSET 2.448110 -6.726130 0.000000 
			CHANNELS 3 Zrotation Yrotation Xrotation
			JOINT LeftFoot
			{
				OFFSET 2.562200 -7.039590 0.000000 
				CHANNELS 3 Zrotation Yrotation Xrotation
				JOINT LeftToeBase
				{
					OFFSET 0.157640 -0.433110 2.322550 
					CHANNELS 3 Zrotation Yrotation Xrotation
					End Site
					{
						OFFSET 0.000000 0.000000 0.000000 
					}
				}
			}
		}
	}
	JOINT RightUpLeg
	{
		OFFSET -1.305520 -1.794630 0.839290 
		CHANNELS 3 Zrotation Yrotation Xrotation
		JOINT RightLeg
		{
			OFFSET -2.542530 -6.985550 0.000000 
			CHANNELS 3 Zrotation Yrotation Xrotation
			JOINT RightFoot
			{
				OFFSET -2.568260 -7.056230 0.000000 
				CHANNELS 3 Zrotation Yrotation Xrotation
				JOINT RightToeBase
				{
					OFFSET -0.164730 -0.452590 2.363150 
					CHANNELS 3 Zrotation Yrotation Xrotation
					End Site
					{
						OFFSET 0.000000 0.000000 0.000000 
					}
				}
			}
		}
	}
	JOINT Spine
	{
		OFFSET 0.028270 2.035590 -0.193380 
		CHANNELS 3 Zrotation Yrotation Xrotation
		JOINT Spine1
		{
			OFFSET 0.056720 2.048850 -0.042750 
			CHANNELS 3 Zrotation Yrotation Xrotation
			JOINT Neck1
			{
				OFFSET -0.054170 1.746240 0.172020 
				CHANNELS 3 Zrotation Yrotation Xrotation
				JOINT Head
				{
					OFFSET 0.104070 1.761360 -0.123970 
					CHANNELS 3 Zrotation Yrotation Xrotation
					End Site
					{
						OFFSET 0.000000 0.000000 0.000000 
					}
				}
			}
			JOINT LeftArm
			{
				OFFSET 3.362410 1.200890 -0.311210 
				CHANNELS 3 Zrotation Yrotation Xrotation
				JOINT LeftForeArm
				{
					OFFSET 4.983000 -0.000000 -0.000000 
					CHANNELS 3 Zrotation Yrotation Xrotation
					JOINT LeftHand
					{
						OFFSET 3.483560 -0.000000 -0.000000 
						CHANNELS 3 Zrotation Yrotation Xrotation
						JOINT LeftHandIndex1
						{
							OFFSET 0.715260 -0.000000 -0.000000 
							CHANNELS 3 Zrotation Yrotation Xrotation
							End Site
							{
								OFFSET 0.000000 0.000000 0.000000 
							}
						}
					}
				}
			}
			JOINT RightArm
			{
				OFFSET -3.136600 1.374050 -0.404650 
				CHANNELS 3 Zrotation Yrotation Xrotation
				JOINT RightForeArm
				{
					OFFSET -5.241900 -0.000000 -0.000000 
					CHANNELS 3 Zrotation Yrotation Xrotation
					JOINT RightHand
					{
						OFFSET -3.444170 -0.000000 -0.000000 
						CHANNELS 3 Zrotation Yrotation Xrotation
						JOINT RightHandIndex1
						{
							OFFSET -0.622530 -0.000000 -0.000000 
							CHANNELS 3 Zrotation Yrotation Xrotation
							End Site
							{
								OFFSET 0.000000 0.000000 0.000000 
							}
						}
					}
				}
			}
		}
	}
}
MOTION
Frames: 7
Frame Time: 0.041667
1.080541 9.951548 -6.905172 -0.033097 -67.819103 -16.515745 4.275719 -2.218570 -77.124069 17.697782 21.694804 82.110533 1.824726 -5.749821 25.597406 0.304300 -3.546900 -9.805300 -2.135632 9.369523 -83.455392 -20.351587 -21.977562 88.212081 1.325420 -12.589384 18.992262 -0.329000 -3.686500 10.196300 -1.539095 1.973279 27.059845 -0.850973 0.810086 -7.973561 -0.846432 7.844554 4.666079 1.054000 3.972500 2.763200 -79.367348 -64.257515 52.613760 31.158363 -37.790130 -12.840298 -1.070679 -0.681754 18.079235 -7.125000 0.000000 0.000000 58.191545 57.032370 40.184672 -36.155287 36.028208 -17.320596 0.102401 -0.171653 32.347016 7.125000 0.000000 0.000000 
1.074354 9.955084 -6.900556 -0.536783 -67.880111 -15.957403 4.504508 -2.185809 -77.240075 17.717225 21.708272 82.140687 1.824722 -5.623562 25.666803 0.275800 -3.377800 -9.332500 -1.951339 9.411487 -83.488582 -20.347930 -21.973050 88.205798 1.346041 -12.626721 18.908952 -0.356700 -3.836900 10.618100 -1.403520 2.009646 27.012711 -0.914910 0.841525 -8.048584 -0.843300 7.714729 4.583558 1.049000 3.908800 2.754300 -79.581970 -63.956548 52.640847 31.709210 -38.301549 -13.260866 -1.096594 -0.706227 17.220407 -7.125000 0.000000 0.000000 58.107298 56.829209 40.158361 -36.304035 36.193217 -17.463244 0.108452 -0.140534 32.262932 7.125000 0.000000 0.000000 
1.067184 9.957834 -6.897315 -0.823330 -67.891588 -15.590190 4.637253 -2.214027 -77.361236 17.722899 21.714212 82.169221 1.828359 -5.743735 25.619392 0.310500 -3.582100 -9.903900 -1.830445 9.430156 -83.556645 -20.348250 -21.973422 88.211513 1.349704 -12.627906 18.887863 -0.337200 -3.731500 10.322500 -1.284490 2.020974 26.959334 -0.894416 0.857669 -8.116385 -0.870575 7.588016 4.211405 1.023000 3.850900 2.631200 -79.560604 -63.677206 52.342824 32.256039 -38.768329 -13.667950 -1.095481 -0.727934 17.041826 -7.125000 0.000000 0.000000 58.096645 56.693554 40.230263 -36.350516 36.265641 -17.519682 0.120283 -0.143278 32.359721 7.125000 0.000000 0.000000 
1.060309 9.959602 -6.896529 -0.650974 -67.843101 -15.656380 4.574289 -2.258170 -77.433082 17.721159 21.711900 82.186688 1.827147 -5.879411 25.521907 0.344900 -3.773600 -10.440500 -1.881650 9.368314 -83.663446 -20.357741 -21.985331 88.241253 1.340120 -12.595744 18.904536 -0.306100 -3.556900 9.833200 -1.290084 1.987691 26.959828 -0.801225 0.838488 -8.097525 -0.881667 7.453337 3.698060 0.995700 3.792200 2.455400 -79.173720 -63.517791 51.952611 32.779316 -39.167347 -14.046209 -1.090777 -0.748818 16.781217 -7.125000 0.000000 0.000000 58.217576 56.736963 40.495026 -36.367179 36.267251 -17.528238 0.143968 -0.150275 32.574918 7.125000 0.000000 0.000000 
1.054810 9.960682 -6.897119 -0.232229 -67.778749 -15.955327 4.431171 -2.307672 -77.480622 17.722920 21.706469 82.199078 1.822484 -5.879279 25.480080 0.343700 -3.767300 -10.422900 -2.062184 9.246409 -83.806466 -20.374113 -22.005936 88.289405 1.320079 -12.536489 18.949197 -0.317700 -3.623300 10.019100 -1.370079 1.904132 27.027761 -0.684964 0.786916 -7.985658 -0.847129 7.349520 3.308922 1.005700 3.747000 2.336500 -78.699396 -63.449365 51.414296 33.251206 -39.502396 -14.385059 -1.102362 -0.763909 16.141325 -7.125000 0.000000 0.000000 58.307588 56.900129 40.856508 -36.396448 36.247729 -17.535346 0.170886 -0.157294 32.248475 7.125000 0.000000 0.000000 
1.048917 9.960584 -6.897511 -0.095234 -67.703882 -15.945044 4.393252 -2.372838 -77.628231 17.731738 21.706511 82.217799 1.819699 -5.799375 25.507122 0.338300 -3.737900 -10.340500 -2.187911 9.129805 -83.990707 -20.395596 -22.027051 88.351549 1.318977 -12.519107 18.926316 -0.363300 -3.871900 10.716700 -1.351595 1.836947 27.070344 -0.586912 0.754598 -7.907305 -0.777696 7.198042 2.912691 1.033300 3.678200 2.220000 -78.564723 -63.380206 51.068956 33.667836 -39.816655 -14.696316 -1.116546 -0.766192 15.287655 -7.125000 0.000000 0.000000 58.194749 56.974905 41.031135 -36.390662 36.223387 -17.524167 0.188476 -0.173101 31.552304 7.125000 0.000000 0.000000 
1.042631 9.960486 -6.896136 -0.352675 -67.682269 -15.546245 4.511662 -2.400661 -77.831052 17.738999 21.715053 82.244417 1.821481 -5.856283 25.481602 0.355600 -3.831200 -10.602400 -2.078949 9.093680 -84.149478 -20.407222 -22.036854 88.389670 1.332762 -12.534050 18.854990 -0.357300 -3.840100 10.627300 -1.308167 1.834725 27.071922 -0.607181 0.760438 -7.874953 -0.718141 6.937123 2.383927 1.030000 3.556800 2.047300 -78.776660 -63.268549 50.989242 34.080031 -40.152344 -15.014766 -1.104495 -0.764561 14.817446 -7.125000 0.000000 0.000000 58.086018 56.964946 41.047896 -36.387463 36.217662 -17.515112 0.205893 -0.179854 31.053074 7.125000 0.000000 0.000000 
